PathFileType	4	(X/Y/Z)	C:/Users/opensim2020/Desktop/walking_exp_matlab/subject01_walking11_straight_01.trc	
DataRate	CameraRate	NumFrames	NumMarkers	Units	OrigDataRate	OrigDataStartFrame	OrigNumFrames	
100.00	100.00	7	44	mm	100.00	1097	374	
Frame#	Time	LFHD			RFHD			LBHD			RBHD			C7			T10			CLAV			STRN			RBAK			LSHO			LUPA			LELB			LFRM			LWRA			LWRB			LFIN			RSHO			RUPA			RELB			RFRM			RWRA			RWRB			RFIN			LASI			RASI			LPSI			RPSI			LTHI			LKNE			LTIB			LANK			LHEE			LTOE			RTHI			RKNE			RTIB			RANK			RHEE			RTOE			*39			*40			*41			*42			*43			
		X1	Y1	Z1	X2	Y2	Z2	X3	Y3	Z3	X4	Y4	Z4	X5	Y5	Z5	X6	Y6	Z6	X7	Y7	Z7	X8	Y8	Z8	X9	Y9	Z9	X10	Y10	Z10	X11	Y11	Z11	X12	Y12	Z12	X13	Y13	Z13	X14	Y14	Z14	X15	Y15	Z15	X16	Y16	Z16	X17	Y17	Z17	X18	Y18	Z18	X19	Y19	Z19	X20	Y20	Z20	X21	Y21	Z21	X22	Y22	Z22	X23	Y23	Z23	X24	Y24	Z24	X25	Y25	Z25	X26	Y26	Z26	X27	Y27	Z27	X28	Y28	Z28	X29	Y29	Z29	X30	Y30	Z30	X31	Y31	Z31	X32	Y32	Z32	X33	Y33	Z33	X34	Y34	Z34	X35	Y35	Z35	X36	Y36	Z36	X37	Y37	Z37	X38	Y38	Z38	X39	Y39	Z39	X40	Y40	Z40	X41	Y41	Z41	X42	Y42	Z42	X43	Y43	Z43	X44	Y44	Z44	

188	1.870	1346.70154	-175.79764	1680.96057	1457.81311	-154.14441	1692.64160	1366.11267	-276.23904	1609.13391	1484.27637	-255.60123	1619.81824	1403.12415	-275.35602	1433.09082	1421.32886	-307.84436	1142.09961	1404.36340	-129.89293	1368.76965	1403.65686	-85.92972	1211.94897	1485.13562	-327.01761	1242.02710	1243.96936	-190.35666	1393.15515	1160.50098	-206.90387	1207.42761	1159.42126	-209.43694	1056.82715	1134.97131	-160.67369	953.74402	1154.86292	-74.06420	845.68793	1128.45337	-126.67386	836.42224	1120.08057	-71.74617	771.47681	1554.28455	-195.01721	1400.78296	1659.40588	-258.63782	1206.33655	1668.09155	-259.43988	1082.27100	1704.75708	-234.00194	966.03766	1694.54407	-153.98749	848.23346	1732.21936	-199.17317	851.08734	1732.25488	-163.62659	771.50757	1317.32349	-138.40590	932.86932	1533.70898	-135.18411	939.07123	1374.37354	-324.16910	947.44202	1520.39880	-318.57635	950.33716	1271.07263	-146.77473	604.33545	1290.34375	-145.48402	469.60580	1286.35986	-190.50113	283.70258	1346.19617	-204.00204	67.57805	1401.92786	-244.25975	38.60763	1330.93872	-56.30177	33.29969	1605.53723	-123.38218	611.89813	1588.63806	-92.32620	457.23373	1591.69226	-223.24414	338.74823	1547.97095	-349.57132	174.45113	1492.44592	-406.30347	164.58562	1555.49255	-262.78705	61.92396	1436.48621	-176.24054	1721.55994	-3101.89575	1973.22473	1023.37616	-3140.81030	2012.56140	1022.12079						 
189	1.880	1345.52856	-169.85524	1681.03601	1456.59131	-148.26373	1692.74866	1364.81299	-270.35400	1609.26282	1483.04688	-249.78119	1620.03076	1401.95276	-269.80862	1433.33362	1420.31750	-302.60971	1142.41492	1403.29053	-124.46362	1368.81775	1402.54602	-80.68562	1211.93799	1484.11340	-321.74176	1242.40063	1242.80078	-184.82460	1393.31384	1159.27563	-200.60878	1207.62427	1158.13013	-202.53871	1057.08594	1133.58447	-152.62209	954.39734	1153.22668	-64.69517	847.29480	1127.21094	-117.31860	837.38489	1118.38843	-61.77841	773.23279	1553.15259	-189.53354	1400.93140	1658.22864	-253.70767	1206.65442	1666.74048	-254.87289	1082.54565	1703.57922	-229.93034	966.28790	1693.83179	-150.08252	848.28864	1731.23608	-195.45653	851.28064	1731.41711	-160.18217	771.54260	1316.10144	-133.42253	932.87030	1532.38074	-129.95232	939.66016	1373.75122	-319.32614	947.44226	1519.70557	-313.33063	950.68713	1270.74463	-143.32623	603.95697	1289.98169	-143.23863	469.23734	1286.34631	-189.33131	283.57217	1346.68750	-203.33644	67.67294	1402.01111	-244.23344	38.62985	1330.97119	-56.11765	33.14375	1604.34009	-114.98483	613.24091	1587.38745	-81.70172	459.13223	1590.15320	-210.13170	337.61545	1545.93555	-332.70581	170.69261	1490.24951	-388.89694	158.66261	1555.39636	-242.10831	61.60705	1435.26941	-170.18997	1721.71887	-3101.91260	1973.05615	1023.88562	-3140.81836	2012.47058	1022.03265						 
190	1.890	1344.42151	-163.90961	1681.15161	1455.43726	-142.38988	1692.75952	1363.71765	-264.52454	1609.51953	1481.86816	-243.99490	1620.21753	1400.77612	-264.25711	1433.55310	1419.26233	-297.39993	1142.67505	1402.22681	-119.04089	1368.86243	1401.47107	-75.39371	1211.97131	1483.09094	-316.43311	1242.75000	1241.73523	-179.25642	1393.46033	1158.09558	-194.47626	1207.74524	1156.73279	-195.45613	1057.04700	1132.36035	-144.67468	954.93365	1151.73914	-55.37484	848.96460	1126.08740	-108.05589	838.36536	1116.99390	-51.78872	774.93030	1552.05115	-183.95726	1401.08057	1657.18372	-248.67549	1206.92334	1665.47498	-250.31108	1082.75305	1702.47778	-225.82597	966.48840	1693.16516	-146.05840	848.32635	1730.25586	-191.54068	851.42566	1730.57068	-156.59302	771.51398	1314.96484	-128.62344	932.75232	1531.28223	-124.78395	940.20496	1373.07190	-314.44830	947.40344	1519.05408	-308.15198	950.86542	1270.40320	-140.25777	603.56042	1289.68347	-141.11021	468.84515	1286.33435	-188.01198	283.40237	1346.92725	-203.05531	67.64689	1402.14526	-244.12187	38.66456	1331.01160	-56.00307	33.11237	1603.53137	-106.15601	614.99243	1586.03381	-71.36819	460.79358	1588.67322	-196.97244	336.32327	1544.24426	-315.29428	166.44646	1488.35413	-371.13910	152.39442	1555.38306	-220.74586	61.30306	1434.13147	-164.26334	1721.84033	-3102.01514	1973.08997	1023.91516	-3140.65771	2012.47998	1021.93591						 
191	1.900	1343.41431	-157.85925	1681.20557	1454.43384	-136.50896	1692.81494	1362.57983	-258.81006	1609.76343	1480.82739	-238.17934	1620.39453	1399.78247	-258.68341	1433.76440	1418.15564	-292.12750	1142.87671	1401.19788	-113.58633	1368.90613	1400.39478	-70.08997	1211.93811	1482.03064	-311.19415	1243.03149	1240.71399	-173.73447	1393.66040	1156.95117	-188.47623	1207.95667	1155.45520	-188.63799	1057.30786	1131.11145	-136.77794	955.50116	1150.49426	-46.16655	850.56396	1125.15955	-98.79639	839.26355	1115.84937	-42.03783	776.33411	1550.98938	-178.56436	1401.15833	1656.22925	-243.59584	1207.15405	1664.37280	-245.70007	1082.98413	1701.49548	-221.56078	966.64050	1692.52234	-142.00333	848.36230	1729.44666	-187.69566	851.49170	1729.71252	-152.88567	771.47229	1314.18604	-123.95207	932.54700	1530.23596	-119.65353	940.62244	1372.47351	-309.52417	947.42767	1518.47046	-303.01019	951.12250	1269.95081	-137.41583	603.11249	1289.42700	-139.02069	468.47238	1285.96533	-186.39120	283.22565	1347.18518	-202.79520	67.71558	1402.29895	-244.03816	38.72805	1331.08167	-55.82689	33.01265	1602.95068	-97.58531	616.29102	1584.70691	-61.36589	462.34695	1587.24463	-183.82370	334.69925	1542.60950	-297.58234	161.68843	1486.67957	-352.91946	145.62837	1554.84509	-199.39648	60.22296	1433.02710	-158.46114	1721.84668	-3101.91992	1973.12817	1023.37317	-3140.58789	2012.56226	1022.05103						 
192	1.910	1342.40881	-152.08435	1681.22815	1453.56030	-130.64661	1692.91809	1361.60266	-252.76019	1609.73340	1479.84338	-232.39627	1620.49048	1398.81519	-253.11021	1433.96069	1417.08997	-287.01309	1143.14807	1400.27002	-108.11503	1368.90930	1399.41931	-64.78202	1211.91785	1480.94031	-305.80078	1243.21838	1239.72815	-168.20432	1393.81006	1155.87683	-182.52765	1208.12805	1154.09167	-181.58722	1057.43530	1129.98438	-128.78258	956.15607	1149.33240	-36.93034	852.25323	1124.50696	-89.55470	840.08722	1114.58655	-32.13049	778.26978	1550.02173	-173.07947	1401.17737	1655.36609	-238.42841	1207.33948	1663.39624	-240.97743	1083.15063	1700.55762	-217.21277	966.78156	1691.84387	-137.81958	848.37604	1728.44299	-183.67268	851.43109	1728.96863	-148.91956	771.49945	1313.32581	-118.70215	932.59277	1529.32629	-114.54324	940.93976	1371.81177	-304.58682	947.54254	1517.91333	-298.19177	951.58527	1269.58020	-134.73172	602.71619	1289.20435	-136.87921	468.09280	1285.98096	-184.99117	283.12454	1347.34277	-202.59264	67.75359	1402.47131	-243.97139	38.76957	1331.12500	-55.75377	32.98565	1602.62170	-88.43629	618.20154	1583.41833	-51.72338	463.88202	1586.00940	-170.91345	333.29742	1541.29529	-279.24213	156.71429	1485.15076	-334.11496	138.67535	1554.15271	-177.69041	58.97036	1432.07874	-152.57683	1721.88574	-3101.86011	1973.14819	1023.88672	-3140.63062	2012.54321	1022.08148						 
193	1.920	1341.58655	-146.17693	1681.26270	1452.75171	-124.81912	1692.94666	1360.67102	-246.93506	1609.81958	1478.89148	-226.65202	1620.50671	1397.87341	-247.53012	1434.08057	1415.95825	-281.71362	1143.23132	1399.35815	-102.64583	1368.86658	1398.47522	-59.48992	1211.84534	1479.82629	-300.49997	1243.35278	1238.82300	-162.70576	1393.90027	1154.87073	-176.57109	1208.32861	1152.87891	-174.59950	1057.64124	1128.98279	-120.76767	956.81421	1148.20837	-27.57807	854.16559	1123.81396	-80.25751	841.05945	1113.97510	-22.08975	780.02460	1549.13354	-167.60826	1401.16309	1654.51086	-233.20381	1207.45386	1662.51062	-236.21523	1083.29468	1699.66235	-212.79022	966.83020	1691.13831	-133.55482	848.34131	1727.65381	-179.38858	851.50659	1728.19409	-144.77840	771.41852	1312.50891	-114.20462	932.13983	1528.52576	-109.36494	941.22650	1371.20422	-299.63864	947.70099	1517.26758	-292.69992	951.47968	1269.10718	-132.09146	602.25256	1289.00195	-134.82318	467.69235	1286.28223	-183.69257	282.96982	1347.48633	-202.43372	67.65014	1402.70667	-243.78661	38.80729	1331.18127	-55.68408	32.95502	1601.78589	-80.79017	619.08020	1581.95435	-42.42076	465.29099	1584.64709	-158.09793	331.48328	1539.80566	-260.91989	151.29289	1483.73669	-315.05728	131.58548	1553.44666	-155.64922	57.76601	1431.25952	-146.73418	1721.93347	-3101.99902	1972.96448	1023.96558	-3140.69458	2012.45679	1021.98926						 
194	1.930	1340.80188	-140.23010	1681.24121	1451.91455	-119.04906	1692.83472	1359.75879	-241.26434	1609.94104	1478.11133	-220.89911	1620.53650	1397.03564	-241.94977	1434.19299	1414.94519	-276.49503	1143.42175	1398.57007	-97.13595	1368.81555	1397.61011	-54.09640	1211.76794	1478.69690	-295.10965	1243.41809	1238.00830	-157.17552	1394.02173	1153.99988	-170.83594	1208.59387	1151.52576	-167.83049	1057.73071	1127.97937	-112.63683	957.45367	1147.50391	-18.30892	856.03760	1123.19971	-70.94083	842.24225	1113.19666	-12.12181	781.85114	1548.30591	-162.11717	1401.14368	1653.70227	-227.95992	1207.50085	1661.66785	-231.42760	1083.35193	1698.87805	-208.17847	966.92169	1690.40015	-129.17978	848.26538	1726.83594	-175.26573	851.36884	1727.52014	-140.51563	771.41345	1311.57483	-109.12299	931.90704	1527.78235	-104.21792	941.41492	1370.61011	-294.62604	947.89215	1516.73706	-287.57285	951.69818	1268.77124	-129.35649	601.82935	1288.78149	-132.61923	467.28928	1286.33350	-182.26360	282.85620	1347.52551	-202.55150	67.81567	1403.16479	-243.63000	38.47825	1331.23523	-55.59402	32.95661	1601.04443	-72.99677	620.17670	1580.83801	-33.52549	466.76553	1583.56641	-145.35400	329.55771	1538.59656	-242.18661	145.97069	1482.39148	-295.65884	124.00468	1552.70496	-133.07066	56.70753	1430.51563	-140.89653	1721.89807	-3101.89917	1973.21899	1023.33466	-3140.75952	2012.44958	1021.96600						 
